<mxfile host="app.diagrams.net" modified="2023-02-27T14:42:37.338Z" agent="5.0 (Windows NT 10.0; Win64; x64) AppleWebKit/537.36 (KHTML, like Gecko) Chrome/109.0.0.0 Safari/537.36 OPR/95.0.0.0" etag="gb1R4x6Omz37Vd6JkkWM" version="20.8.23" type="github">
  <diagram name="Página-1" id="8IGO-s_MpkhCgcWUfAiH">
    <mxGraphModel dx="1393" dy="758" grid="1" gridSize="10" guides="1" tooltips="1" connect="1" arrows="1" fold="1" page="1" pageScale="1" pageWidth="827" pageHeight="1169" math="0" shadow="0">
      <root>
        <mxCell id="0" />
        <mxCell id="1" parent="0" />
        <mxCell id="d81JuOdIf0_FB9-4cFhc-1" value="médico" style="whiteSpace=wrap;html=1;align=center;fillColor=#d5e8d4;strokeColor=#82b366;" parent="1" vertex="1">
          <mxGeometry x="140" y="80" width="100" height="40" as="geometry" />
        </mxCell>
        <mxCell id="d81JuOdIf0_FB9-4cFhc-2" value="especialidade" style="whiteSpace=wrap;html=1;align=center;fillColor=#d5e8d4;strokeColor=#82b366;" parent="1" vertex="1">
          <mxGeometry x="690" y="80" width="100" height="40" as="geometry" />
        </mxCell>
        <mxCell id="d81JuOdIf0_FB9-4cFhc-52" value="" style="edgeStyle=none;rounded=0;orthogonalLoop=1;jettySize=auto;html=1;endArrow=none;endFill=0;" parent="1" source="d81JuOdIf0_FB9-4cFhc-3" target="d81JuOdIf0_FB9-4cFhc-23" edge="1">
          <mxGeometry relative="1" as="geometry" />
        </mxCell>
        <mxCell id="d81JuOdIf0_FB9-4cFhc-3" value="paciente" style="whiteSpace=wrap;html=1;align=center;fillColor=#d5e8d4;strokeColor=#82b366;" parent="1" vertex="1">
          <mxGeometry x="140" y="480" width="100" height="40" as="geometry" />
        </mxCell>
        <mxCell id="d81JuOdIf0_FB9-4cFhc-4" value="quarto" style="whiteSpace=wrap;html=1;align=center;fillColor=#d5e8d4;strokeColor=#82b366;" parent="1" vertex="1">
          <mxGeometry x="690" y="480" width="100" height="40" as="geometry" />
        </mxCell>
        <mxCell id="d81JuOdIf0_FB9-4cFhc-17" style="rounded=0;orthogonalLoop=1;jettySize=auto;html=1;endArrow=none;endFill=0;" parent="1" source="d81JuOdIf0_FB9-4cFhc-5" target="d81JuOdIf0_FB9-4cFhc-1" edge="1">
          <mxGeometry relative="1" as="geometry" />
        </mxCell>
        <mxCell id="d81JuOdIf0_FB9-4cFhc-5" value="crm" style="ellipse;whiteSpace=wrap;html=1;align=center;fontStyle=4;fillColor=#f8cecc;strokeColor=#b85450;" parent="1" vertex="1">
          <mxGeometry x="60" y="20" width="100" height="40" as="geometry" />
        </mxCell>
        <mxCell id="d81JuOdIf0_FB9-4cFhc-18" style="edgeStyle=none;rounded=0;orthogonalLoop=1;jettySize=auto;html=1;endArrow=none;endFill=0;" parent="1" source="d81JuOdIf0_FB9-4cFhc-6" target="d81JuOdIf0_FB9-4cFhc-1" edge="1">
          <mxGeometry relative="1" as="geometry" />
        </mxCell>
        <mxCell id="d81JuOdIf0_FB9-4cFhc-6" value="nome" style="ellipse;whiteSpace=wrap;html=1;align=center;" parent="1" vertex="1">
          <mxGeometry y="80" width="100" height="40" as="geometry" />
        </mxCell>
        <mxCell id="d81JuOdIf0_FB9-4cFhc-19" style="edgeStyle=none;rounded=0;orthogonalLoop=1;jettySize=auto;html=1;endArrow=none;endFill=0;" parent="1" source="d81JuOdIf0_FB9-4cFhc-7" target="d81JuOdIf0_FB9-4cFhc-1" edge="1">
          <mxGeometry relative="1" as="geometry" />
        </mxCell>
        <mxCell id="d81JuOdIf0_FB9-4cFhc-7" value="salário" style="ellipse;whiteSpace=wrap;html=1;align=center;" parent="1" vertex="1">
          <mxGeometry x="210" y="20" width="100" height="40" as="geometry" />
        </mxCell>
        <mxCell id="d81JuOdIf0_FB9-4cFhc-21" style="edgeStyle=none;rounded=0;orthogonalLoop=1;jettySize=auto;html=1;endArrow=none;endFill=0;" parent="1" source="d81JuOdIf0_FB9-4cFhc-9" target="d81JuOdIf0_FB9-4cFhc-3" edge="1">
          <mxGeometry relative="1" as="geometry" />
        </mxCell>
        <mxCell id="d81JuOdIf0_FB9-4cFhc-9" value="RG" style="ellipse;whiteSpace=wrap;html=1;align=center;" parent="1" vertex="1">
          <mxGeometry y="480" width="100" height="40" as="geometry" />
        </mxCell>
        <mxCell id="d81JuOdIf0_FB9-4cFhc-25" style="edgeStyle=none;rounded=0;orthogonalLoop=1;jettySize=auto;html=1;endArrow=none;endFill=0;" parent="1" source="d81JuOdIf0_FB9-4cFhc-11" target="d81JuOdIf0_FB9-4cFhc-3" edge="1">
          <mxGeometry relative="1" as="geometry" />
        </mxCell>
        <mxCell id="d81JuOdIf0_FB9-4cFhc-11" value="nome" style="ellipse;whiteSpace=wrap;html=1;align=center;" parent="1" vertex="1">
          <mxGeometry x="30" y="540" width="100" height="40" as="geometry" />
        </mxCell>
        <mxCell id="d81JuOdIf0_FB9-4cFhc-26" style="edgeStyle=none;rounded=0;orthogonalLoop=1;jettySize=auto;html=1;endArrow=none;endFill=0;" parent="1" source="d81JuOdIf0_FB9-4cFhc-12" target="d81JuOdIf0_FB9-4cFhc-3" edge="1">
          <mxGeometry relative="1" as="geometry" />
        </mxCell>
        <mxCell id="d81JuOdIf0_FB9-4cFhc-12" value="endereço" style="ellipse;whiteSpace=wrap;html=1;align=center;" parent="1" vertex="1">
          <mxGeometry x="140" y="600" width="100" height="40" as="geometry" />
        </mxCell>
        <mxCell id="d81JuOdIf0_FB9-4cFhc-27" style="edgeStyle=none;rounded=0;orthogonalLoop=1;jettySize=auto;html=1;endArrow=none;endFill=0;" parent="1" source="d81JuOdIf0_FB9-4cFhc-13" target="d81JuOdIf0_FB9-4cFhc-3" edge="1">
          <mxGeometry relative="1" as="geometry" />
        </mxCell>
        <mxCell id="d81JuOdIf0_FB9-4cFhc-13" value="telefone" style="ellipse;shape=doubleEllipse;margin=3;whiteSpace=wrap;html=1;align=center;" parent="1" vertex="1">
          <mxGeometry x="250" y="420" width="100" height="40" as="geometry" />
        </mxCell>
        <mxCell id="d81JuOdIf0_FB9-4cFhc-28" style="edgeStyle=none;rounded=0;orthogonalLoop=1;jettySize=auto;html=1;endArrow=none;endFill=0;" parent="1" source="d81JuOdIf0_FB9-4cFhc-14" target="d81JuOdIf0_FB9-4cFhc-3" edge="1">
          <mxGeometry relative="1" as="geometry" />
        </mxCell>
        <mxCell id="d81JuOdIf0_FB9-4cFhc-14" value="data_nascimento" style="ellipse;whiteSpace=wrap;html=1;align=center;" parent="1" vertex="1">
          <mxGeometry x="250" y="540" width="100" height="40" as="geometry" />
        </mxCell>
        <mxCell id="d81JuOdIf0_FB9-4cFhc-29" style="edgeStyle=none;rounded=0;orthogonalLoop=1;jettySize=auto;html=1;endArrow=none;endFill=0;" parent="1" source="d81JuOdIf0_FB9-4cFhc-15" target="d81JuOdIf0_FB9-4cFhc-4" edge="1">
          <mxGeometry relative="1" as="geometry" />
        </mxCell>
        <mxCell id="d81JuOdIf0_FB9-4cFhc-15" value="número" style="ellipse;whiteSpace=wrap;html=1;align=center;fontStyle=4;fillColor=#f8cecc;strokeColor=#b85450;" parent="1" vertex="1">
          <mxGeometry x="690" y="400" width="100" height="40" as="geometry" />
        </mxCell>
        <mxCell id="d81JuOdIf0_FB9-4cFhc-30" style="edgeStyle=none;rounded=0;orthogonalLoop=1;jettySize=auto;html=1;endArrow=none;endFill=0;" parent="1" source="d81JuOdIf0_FB9-4cFhc-16" target="d81JuOdIf0_FB9-4cFhc-4" edge="1">
          <mxGeometry relative="1" as="geometry" />
        </mxCell>
        <mxCell id="d81JuOdIf0_FB9-4cFhc-16" value="andar" style="ellipse;whiteSpace=wrap;html=1;align=center;" parent="1" vertex="1">
          <mxGeometry x="690" y="560" width="100" height="40" as="geometry" />
        </mxCell>
        <mxCell id="d81JuOdIf0_FB9-4cFhc-24" style="edgeStyle=none;rounded=0;orthogonalLoop=1;jettySize=auto;html=1;endArrow=none;endFill=0;" parent="1" source="d81JuOdIf0_FB9-4cFhc-23" target="d81JuOdIf0_FB9-4cFhc-3" edge="1">
          <mxGeometry relative="1" as="geometry" />
        </mxCell>
        <mxCell id="d81JuOdIf0_FB9-4cFhc-23" value="CPF" style="ellipse;whiteSpace=wrap;html=1;align=center;fontStyle=4;fillColor=#f8cecc;strokeColor=#b85450;" parent="1" vertex="1">
          <mxGeometry x="30" y="420" width="100" height="40" as="geometry" />
        </mxCell>
        <mxCell id="d81JuOdIf0_FB9-4cFhc-34" style="edgeStyle=none;rounded=0;orthogonalLoop=1;jettySize=auto;html=1;endArrow=none;endFill=0;" parent="1" source="d81JuOdIf0_FB9-4cFhc-31" edge="1">
          <mxGeometry relative="1" as="geometry">
            <mxPoint x="240" y="100" as="targetPoint" />
          </mxGeometry>
        </mxCell>
        <mxCell id="d81JuOdIf0_FB9-4cFhc-48" value="(1,N)" style="edgeLabel;html=1;align=center;verticalAlign=middle;resizable=0;points=[];" parent="d81JuOdIf0_FB9-4cFhc-34" vertex="1" connectable="0">
          <mxGeometry x="0.8118" relative="1" as="geometry">
            <mxPoint as="offset" />
          </mxGeometry>
        </mxCell>
        <mxCell id="d81JuOdIf0_FB9-4cFhc-35" style="edgeStyle=none;rounded=0;orthogonalLoop=1;jettySize=auto;html=1;endArrow=none;endFill=0;" parent="1" source="d81JuOdIf0_FB9-4cFhc-31" target="d81JuOdIf0_FB9-4cFhc-2" edge="1">
          <mxGeometry relative="1" as="geometry" />
        </mxCell>
        <mxCell id="d81JuOdIf0_FB9-4cFhc-49" value="(N,1)" style="edgeLabel;html=1;align=center;verticalAlign=middle;resizable=0;points=[];" parent="d81JuOdIf0_FB9-4cFhc-35" vertex="1" connectable="0">
          <mxGeometry x="0.8125" relative="1" as="geometry">
            <mxPoint x="-5" as="offset" />
          </mxGeometry>
        </mxCell>
        <mxCell id="d81JuOdIf0_FB9-4cFhc-31" value="formação" style="shape=rhombus;perimeter=rhombusPerimeter;whiteSpace=wrap;html=1;align=center;fillColor=#dae8fc;strokeColor=#6c8ebf;" parent="1" vertex="1">
          <mxGeometry x="410" y="70" width="120" height="60" as="geometry" />
        </mxCell>
        <mxCell id="d81JuOdIf0_FB9-4cFhc-37" style="edgeStyle=none;rounded=0;orthogonalLoop=1;jettySize=auto;html=1;endArrow=none;endFill=0;" parent="1" source="d81JuOdIf0_FB9-4cFhc-32" target="d81JuOdIf0_FB9-4cFhc-3" edge="1">
          <mxGeometry relative="1" as="geometry" />
        </mxCell>
        <mxCell id="d81JuOdIf0_FB9-4cFhc-51" value="(1,N)" style="edgeLabel;html=1;align=center;verticalAlign=middle;resizable=0;points=[];" parent="d81JuOdIf0_FB9-4cFhc-37" vertex="1" connectable="0">
          <mxGeometry x="0.8133" y="3" relative="1" as="geometry">
            <mxPoint x="-1" y="-6" as="offset" />
          </mxGeometry>
        </mxCell>
        <mxCell id="d81JuOdIf0_FB9-4cFhc-42" style="edgeStyle=none;rounded=0;orthogonalLoop=1;jettySize=auto;html=1;endArrow=none;endFill=0;" parent="1" source="d81JuOdIf0_FB9-4cFhc-32" target="d81JuOdIf0_FB9-4cFhc-1" edge="1">
          <mxGeometry relative="1" as="geometry" />
        </mxCell>
        <mxCell id="d81JuOdIf0_FB9-4cFhc-50" value="(1,N)" style="edgeLabel;html=1;align=center;verticalAlign=middle;resizable=0;points=[];" parent="d81JuOdIf0_FB9-4cFhc-42" vertex="1" connectable="0">
          <mxGeometry x="0.7867" y="1" relative="1" as="geometry">
            <mxPoint x="-3" y="-2" as="offset" />
          </mxGeometry>
        </mxCell>
        <mxCell id="d81JuOdIf0_FB9-4cFhc-32" value="trata" style="shape=rhombus;perimeter=rhombusPerimeter;whiteSpace=wrap;html=1;align=center;fillColor=#dae8fc;strokeColor=#6c8ebf;" parent="1" vertex="1">
          <mxGeometry x="240" y="270" width="120" height="60" as="geometry" />
        </mxCell>
        <mxCell id="d81JuOdIf0_FB9-4cFhc-38" style="edgeStyle=none;rounded=0;orthogonalLoop=1;jettySize=auto;html=1;endArrow=none;endFill=0;" parent="1" source="d81JuOdIf0_FB9-4cFhc-33" target="d81JuOdIf0_FB9-4cFhc-4" edge="1">
          <mxGeometry relative="1" as="geometry" />
        </mxCell>
        <mxCell id="d81JuOdIf0_FB9-4cFhc-54" value="(1,1)" style="edgeLabel;html=1;align=center;verticalAlign=middle;resizable=0;points=[];" parent="d81JuOdIf0_FB9-4cFhc-38" vertex="1" connectable="0">
          <mxGeometry x="0.775" y="-2" relative="1" as="geometry">
            <mxPoint x="-2" y="-2" as="offset" />
          </mxGeometry>
        </mxCell>
        <mxCell id="d81JuOdIf0_FB9-4cFhc-39" style="edgeStyle=none;rounded=0;orthogonalLoop=1;jettySize=auto;html=1;endArrow=none;endFill=0;" parent="1" source="d81JuOdIf0_FB9-4cFhc-33" target="d81JuOdIf0_FB9-4cFhc-3" edge="1">
          <mxGeometry relative="1" as="geometry" />
        </mxCell>
        <mxCell id="d81JuOdIf0_FB9-4cFhc-53" value="(1,1)" style="edgeLabel;html=1;align=center;verticalAlign=middle;resizable=0;points=[];" parent="d81JuOdIf0_FB9-4cFhc-39" vertex="1" connectable="0">
          <mxGeometry x="0.8353" relative="1" as="geometry">
            <mxPoint x="6" as="offset" />
          </mxGeometry>
        </mxCell>
        <mxCell id="d81JuOdIf0_FB9-4cFhc-33" value="internado" style="shape=rhombus;perimeter=rhombusPerimeter;whiteSpace=wrap;html=1;align=center;fillColor=#dae8fc;strokeColor=#6c8ebf;" parent="1" vertex="1">
          <mxGeometry x="410" y="470" width="120" height="60" as="geometry" />
        </mxCell>
        <mxCell id="d81JuOdIf0_FB9-4cFhc-41" style="edgeStyle=none;rounded=0;orthogonalLoop=1;jettySize=auto;html=1;endArrow=none;endFill=0;" parent="1" source="d81JuOdIf0_FB9-4cFhc-40" target="d81JuOdIf0_FB9-4cFhc-2" edge="1">
          <mxGeometry relative="1" as="geometry" />
        </mxCell>
        <mxCell id="d81JuOdIf0_FB9-4cFhc-40" value="nome" style="ellipse;whiteSpace=wrap;html=1;align=center;fontStyle=4;fillColor=#f8cecc;strokeColor=#b85450;" parent="1" vertex="1">
          <mxGeometry x="690" width="100" height="40" as="geometry" />
        </mxCell>
        <mxCell id="d81JuOdIf0_FB9-4cFhc-56" style="edgeStyle=none;rounded=0;orthogonalLoop=1;jettySize=auto;html=1;endArrow=none;endFill=0;" parent="1" source="d81JuOdIf0_FB9-4cFhc-55" target="d81JuOdIf0_FB9-4cFhc-1" edge="1">
          <mxGeometry relative="1" as="geometry" />
        </mxCell>
        <mxCell id="d81JuOdIf0_FB9-4cFhc-58" value="(1,1)" style="edgeLabel;html=1;align=center;verticalAlign=middle;resizable=0;points=[];" parent="d81JuOdIf0_FB9-4cFhc-56" vertex="1" connectable="0">
          <mxGeometry x="0.7534" y="1" relative="1" as="geometry">
            <mxPoint y="-4" as="offset" />
          </mxGeometry>
        </mxCell>
        <mxCell id="d81JuOdIf0_FB9-4cFhc-57" style="edgeStyle=none;rounded=0;orthogonalLoop=1;jettySize=auto;html=1;endArrow=none;endFill=0;" parent="1" source="d81JuOdIf0_FB9-4cFhc-55" target="d81JuOdIf0_FB9-4cFhc-3" edge="1">
          <mxGeometry relative="1" as="geometry" />
        </mxCell>
        <mxCell id="d81JuOdIf0_FB9-4cFhc-59" value="(1,1)" style="edgeLabel;html=1;align=center;verticalAlign=middle;resizable=0;points=[];" parent="d81JuOdIf0_FB9-4cFhc-57" vertex="1" connectable="0">
          <mxGeometry x="0.8122" y="3" relative="1" as="geometry">
            <mxPoint x="-4" y="-3" as="offset" />
          </mxGeometry>
        </mxCell>
        <mxCell id="d81JuOdIf0_FB9-4cFhc-55" value="responsável" style="shape=rhombus;perimeter=rhombusPerimeter;whiteSpace=wrap;html=1;align=center;fillColor=#dae8fc;strokeColor=#6c8ebf;" parent="1" vertex="1">
          <mxGeometry x="20" y="270" width="120" height="60" as="geometry" />
        </mxCell>
        <mxCell id="d81JuOdIf0_FB9-4cFhc-66" style="edgeStyle=none;rounded=0;orthogonalLoop=1;jettySize=auto;html=1;endArrow=none;endFill=0;" parent="1" source="d81JuOdIf0_FB9-4cFhc-61" target="d81JuOdIf0_FB9-4cFhc-12" edge="1">
          <mxGeometry relative="1" as="geometry" />
        </mxCell>
        <mxCell id="d81JuOdIf0_FB9-4cFhc-61" value="nome_rua" style="ellipse;whiteSpace=wrap;html=1;align=center;" parent="1" vertex="1">
          <mxGeometry x="40" y="640" width="100" height="40" as="geometry" />
        </mxCell>
        <mxCell id="d81JuOdIf0_FB9-4cFhc-65" style="edgeStyle=none;rounded=0;orthogonalLoop=1;jettySize=auto;html=1;endArrow=none;endFill=0;" parent="1" source="d81JuOdIf0_FB9-4cFhc-62" target="d81JuOdIf0_FB9-4cFhc-12" edge="1">
          <mxGeometry relative="1" as="geometry" />
        </mxCell>
        <mxCell id="d81JuOdIf0_FB9-4cFhc-62" value="número" style="ellipse;whiteSpace=wrap;html=1;align=center;" parent="1" vertex="1">
          <mxGeometry x="140" y="680" width="100" height="40" as="geometry" />
        </mxCell>
        <mxCell id="d81JuOdIf0_FB9-4cFhc-64" style="edgeStyle=none;rounded=0;orthogonalLoop=1;jettySize=auto;html=1;endArrow=none;endFill=0;" parent="1" source="d81JuOdIf0_FB9-4cFhc-63" target="d81JuOdIf0_FB9-4cFhc-12" edge="1">
          <mxGeometry relative="1" as="geometry" />
        </mxCell>
        <mxCell id="d81JuOdIf0_FB9-4cFhc-63" value="cep" style="ellipse;whiteSpace=wrap;html=1;align=center;" parent="1" vertex="1">
          <mxGeometry x="240" y="640" width="100" height="40" as="geometry" />
        </mxCell>
        <mxCell id="d81JuOdIf0_FB9-4cFhc-68" style="edgeStyle=none;rounded=0;orthogonalLoop=1;jettySize=auto;html=1;endArrow=none;endFill=0;" parent="1" source="d81JuOdIf0_FB9-4cFhc-67" target="d81JuOdIf0_FB9-4cFhc-2" edge="1">
          <mxGeometry relative="1" as="geometry" />
        </mxCell>
        <mxCell id="d81JuOdIf0_FB9-4cFhc-67" value="descrição" style="ellipse;whiteSpace=wrap;html=1;align=center;" parent="1" vertex="1">
          <mxGeometry x="690" y="160" width="100" height="40" as="geometry" />
        </mxCell>
      </root>
    </mxGraphModel>
  </diagram>
</mxfile>
